<?xml version="1.0" encoding="UTF-8"?><svg id="a" xmlns="http://www.w3.org/2000/svg" viewBox="0 0 454.77 297.19"><defs><style>.b{fill:none;stroke:#fff;stroke-miterlimit:10;stroke-width:3px;}</style></defs><polygon class="b" points="118.96 124.8 109.92 127.16 96.37 127.16 83.95 129.98 77.36 129.98 59.85 134.5 55.9 136.2 51.01 133.18 47.43 134.69 40.84 136.2 27.66 141.84 23.15 146.93 24.09 150.59 19.19 152.57 12.79 156.9 9.59 164.62 4.51 174.6 7.34 181 3.38 192.86 1.5 200.01 1.5 206.03 3.95 215.07 5.08 218.46 7.71 219.58 7.9 223.73 9.59 228.43 11.1 231.07 14.68 234.27 17.12 236.34 17.12 239.73 19.76 243.49 21.08 245.94 23.15 247.63 21.64 251.21 24.46 257.61 25.41 261.18 28.23 264.38 31.43 267.21 35.01 270.03 38.02 271.35 42.54 271.35 48.37 271.35 53.26 272.48 55.34 275.87 57.78 278.69 61.17 280.2 65.5 283.77 70.96 289.04 76.04 290.36 86.39 293.56 94.86 295.63 98.44 294.5 102.96 291.3 111.24 288.48 121.41 285.84 128.18 284.53 137.41 281.14 141.92 279.63 151.9 266.45 155.66 260.06 159.62 255.54 166.39 250.83 173.92 247.07 177.88 244.24 180.89 241.98 190.49 238.6 198.77 237.28 203.29 240.1 207.99 242.55 214.77 243.11 219.66 241.98 225.69 240.67 230.39 238.22 234.53 235.02 240.93 235.02 248.44 235.58 257.5 236.71 266.53 237.28 275.57 237.84 284.61 238.6 295.15 239.54 299.85 240.48 314.91 241.23 345.41 240.29 354.25 240.48 356.51 238.97 362.35 239.35 362.35 242.74 364.79 242.74 368.37 240.29 374.02 241.61 380.42 241.23 386.82 239.16 389.64 239.16 393.59 237.66 397.17 236.15 399.99 236.15 402.06 234.27 405.83 232.01 407.9 228.81 407.9 226.74 406.39 222.6 406.58 216.2 408.84 214.13 407.9 189.28 406.21 185.51 406.39 182.13 411.48 179.68 413.92 178.55 413.92 165.37 412.42 153.33 412.42 145.42 419.76 141.28 426.91 134.88 433.31 123.96 437.64 116.62 439.71 115.49 442.35 106.64 444.42 102.88 443.48 94.22 446.3 92.15 453.08 84.81 451.19 78.97 447.43 73.33 444.42 70.5 439.71 63.91 426.35 60.34 419.57 58.83 412.23 58.83 399.99 57.7 380.61 56.01 373.26 55.26 364.61 55.26 359.52 55.26 357.45 49.42 355.57 36.24 351.62 39.44 348.04 39.07 345.59 36.24 346.72 29.84 350.68 24.01 355.38 21.56 358.02 14.97 369.12 2.93 358.02 6.13 341.26 12.71 323.38 19.49 316.61 40.95 312.84 61.66 296.28 68.81 290.82 65.98 283.1 69.75 279.15 57.51 273.88 59.96 270.3 57.51 270.68 49.98 271.99 45.09 276.89 43.58 291.01 23.26 278.77 27.77 259.38 37.18 248.44 42.64 239.99 71.44 236.79 85.18 221.36 91.21 211.76 93.84 210.06 83.3 204.61 85.75 199.71 85.37 199.9 76.71 201.78 72.01 206.68 69 214.77 48.86 190.68 60.9 175.43 71.82 174.49 91.77 172.79 107.58 154.16 116.24 137.41 122.64 118.96 124.8"/></svg>