<?xml version="1.0" encoding="UTF-8"?><svg id="a" xmlns="http://www.w3.org/2000/svg" viewBox="0 0 461.75 291.14"><defs><style>.b{fill:none;stroke:#fff;stroke-miterlimit:10;stroke-width:3px;}.c{letter-spacing:.09em;}.d{letter-spacing:.06em;}.e{letter-spacing:.06em;}.f{fill:#831810;font-family:Impact, Impact;font-size:21.87px;opacity:.81;}</style></defs><polygon class="b" points="37.64 9.83 30.86 5.88 25.22 5.88 17.31 9.83 12.23 12.09 8.28 23.38 8.28 28.46 1.5 32.98 1.5 40.89 6.58 44.28 8.28 76.37 11.81 78.72 11.81 85.08 81.26 85.08 95.1 85.08 95.1 91.57 146.35 91.57 184.46 91.57 192.65 94.96 200.98 102.3 202.82 111.05 202.82 122.91 203.38 129.69 206.21 135.9 211.29 141.26 216.65 145.64 224.13 149.73 228.79 150.86 268.32 150.86 289.92 151.71 296.7 153.97 306.16 158.21 312.65 169.5 317.17 186.44 323.81 208.89 329.45 228.93 344.56 278.77 341.17 282.72 340.89 287.1 353.73 287.1 360.65 289.64 367.57 289.64 376.46 287.52 383.95 286.53 438.44 278.63 445.36 277.92 446.49 282.44 449.45 285.69 452.7 284.84 452.7 275.81 458.91 267.76 460.18 262.53 445.08 222.86 425.31 170.63 429.26 170.35 433.5 167.52 428.84 162.16 418.11 143.95 414.16 133.64 414.02 123.34 417.83 114.58 430.25 102.58 444.37 95.66 452.84 93.55 460.18 91.85 460.18 86.63 456.79 82.68 447.76 80.28 434.49 79.43 426.86 77.45 421.92 74.63 420.37 66.86 416.7 62.91 415.29 40.18 418.53 34.54 424.32 27.19 430.39 22.96 438.02 18.16 436.61 15.05 432.09 14.35 425.03 17.59 418.68 22.54 410.35 23.95 404.56 14.49 398.63 8.84 383.24 8.42 379.57 3.9 378.72 1.5 374.77 1.5 373.08 4.18 370.39 8.84 335.38 8.84 276.37 8.14 273.55 10.96 205.22 11.66 200.84 8.42 37.64 9.83"/><polygon class="b" points="260.7 95.1 225.97 95.1 214.96 102.72 209.88 112.04 209.88 123.76 211.01 130.11 215.95 137.03 222.02 141.97 228.79 144.51 261.41 144.51 265.64 137.59 270.02 128.28 270.02 111.48 266.49 103.99 260.7 95.1"/><polyline class="b" points="261.41 144.51 272.28 144.51 278.35 138.47 282.16 132.65 286.53 124.75 286.53 114.02 281.31 105.83 276.23 99.05 272.28 95.1 260.7 95.1"/><text class="f" transform="translate(109.7 48.97)"><tspan class="e" x="0" y="0">M</tspan><tspan class="c" x="17.08" y="0">A</tspan><tspan class="d" x="30.13" y="0">XIMUM EFFORT!</tspan></text></svg>