<?xml version="1.0" encoding="UTF-8"?><svg id="a" xmlns="http://www.w3.org/2000/svg" viewBox="0 0 524.68 576.61"><defs><style>.b{fill:#e20e17;}</style></defs><polyline class="b" points="127.25 353.62 78.24 420.81 11.16 507.94 0 525.18 5.05 536.62 14.43 539.23 24.85 543.31 39.07 524.77 103.52 436.42 149.96 373.71"/><polyline class="b" points="116.77 346.36 164.46 385.37 171.96 376.04 123.92 339.94"/><polyline class="b" points="136.8 349.34 312.31 118.86 336.26 107.77 154.75 362.43"/><polyline class="b" points="469.55 344.29 479.01 432.55 488.49 549.56 492.03 571.19 504.23 576.61 513.51 571.95 524.68 567.7 522.62 542.84 510.18 426.77 501.91 343.87"/><polyline class="b" points="456.05 346.06 521.74 342.69 520.98 329.93 457.1 335.86"/><polyline class="b" points="474.03 334.05 447.43 25.94 458.41 0 497.61 331.52"/></svg>